<svg xmlns="http://www.w3.org/2000/svg" viewBox="0 0 64 64" role="img" aria-label="Tri-Tone Translator">
  <defs>
    <linearGradient id="tri-tone-translator-gradient" x1="0" y1="0" x2="1" y2="1">
      <stop offset="0%" stop-color="#FBBF24"/>
      <stop offset="100%" stop-color="#B45309"/>
    </linearGradient>
  </defs>
  <rect width="64" height="64" rx="14" fill="url(#tri-tone-translator-gradient)"/>
  <path d="M22 11h18a3 3 0 0 1 3 3v9a3 3 0 0 1-3 3h-3v3.5L33 25.5h-11a3 3 0 0 1-3-3v-8.5a3 3 0 0 1 3-3z" fill="#FFFFFF"/>
  <path d="M28 17h10M28 20h7" stroke="#D97706" stroke-width="1.6" stroke-linecap="round" opacity="0.6"/>
  <path d="M9 36a3 3 0 0 1 3-3h12a3 3 0 0 1 3 3v7a3 3 0 0 1-3 3h-2v3.5L18.5 46H12a3 3 0 0 1-3-3v-7z" fill="#FFFFFF" opacity="0.7"/>
  <path d="M37 36a3 3 0 0 1 3-3h12a3 3 0 0 1 3 3v7a3 3 0 0 1-3 3h-6.5L43.5 49.5V46h-3.5a3 3 0 0 1-3-3v-7z" fill="#FFFFFF" opacity="0.45"/>
</svg>
