<svg xmlns="http://www.w3.org/2000/svg" viewBox="0 0 64 64" role="img" aria-label="Data Populator">
  <defs>
    <linearGradient id="data-populator-gradient" x1="0" y1="0" x2="1" y2="1">
      <stop offset="0%" stop-color="#34D399"/>
      <stop offset="100%" stop-color="#047857"/>
    </linearGradient>
  </defs>
  <rect width="64" height="64" rx="14" fill="url(#data-populator-gradient)"/>
  <rect x="11" y="16" width="3" height="3" rx="1" fill="#FFFFFF" opacity="0.95"/>
  <rect x="17" y="16.5" width="11" height="2" rx="1" fill="#FFFFFF" opacity="0.95"/>
  <rect x="11" y="24" width="3" height="3" rx="1" fill="#FFFFFF" opacity="0.75"/>
  <rect x="17" y="24.5" width="9" height="2" rx="1" fill="#FFFFFF" opacity="0.75"/>
  <rect x="11" y="32" width="3" height="3" rx="1" fill="#FFFFFF" opacity="0.55"/>
  <rect x="17" y="32.5" width="12" height="2" rx="1" fill="#FFFFFF" opacity="0.55"/>
  <path d="M34 32l4-4 4 4M38 28v9" stroke="#FBBF24" stroke-width="2.4" stroke-linecap="round" stroke-linejoin="round" fill="none"/>
  <path d="M48 22a4 4 0 0 1 4 4v4a4 4 0 0 0 2 3.5 4 4 0 0 0-2 3.5v4a4 4 0 0 1-4 4" stroke="#FFFFFF" stroke-width="2.4" stroke-linecap="round" fill="none"/>
  <path d="M56 22a4 4 0 0 0-4 4v4a4 4 0 0 1-2 3.5 4 4 0 0 1 2 3.5v4a4 4 0 0 0 4 4" stroke="#FFFFFF" stroke-width="2.4" stroke-linecap="round" fill="none"/>
  <circle cx="52" cy="33.5" r="1.4" fill="#FBBF24"/>
</svg>
